<?xml version="1.0" encoding="UTF-8"?>
<svg version="1.1" xmlns="http://www.w3.org/2000/svg" width="500" height="500">
<path d="M0 0 C165 0 330 0 500 0 C500 165 500 330 500 500 C335 500 170 500 0 500 C0 335 0 170 0 0 Z " fill="#FEFEFE" transform="translate(0,0)"/>
<path d="M0 0 C1.90888977 0.10536194 1.90888977 0.10536194 4 1 C5.30949402 3.27073669 5.30949402 3.27073669 6.45776367 6.31420898 C6.8946904 7.44886093 7.33161713 8.58351288 7.78178406 9.75254822 C8.23922501 10.98791824 8.69666595 12.22328827 9.16796875 13.49609375 C9.65169851 14.76836171 10.1368511 16.04008953 10.62336731 17.31129456 C11.90105218 20.66077363 13.15986344 24.01704051 14.41473389 27.37512207 C15.6947554 30.79127616 16.99132239 34.20112972 18.28710938 37.61132812 C20.56282697 43.60298569 22.82302465 49.60031648 25.07145691 55.60227966 C25.94293551 57.96423117 25.94293551 57.96423117 27 60 C27.01030746 59.26306412 27.02061493 58.52612823 27.03123474 57.76686096 C27.12904643 50.83578924 27.23153716 43.90480098 27.33933926 36.97387791 C27.39460027 33.41027032 27.44802518 29.84665457 27.49731445 26.28295898 C27.55400532 22.18984755 27.61857318 18.0968939 27.68359375 14.00390625 C27.70030624 12.71851456 27.71701874 11.43312286 27.73423767 10.10877991 C27.75418289 8.92763107 27.77412811 7.74648224 27.79467773 6.52954102 C27.81022202 5.48363297 27.8257663 4.43772491 27.84178162 3.36012268 C28 1 28 1 29 0 C30.91458282 -0.09971786 32.83282317 -0.13080589 34.75 -0.1328125 C35.9153125 -0.13410156 37.080625 -0.13539063 38.28125 -0.13671875 C39.5084375 -0.13285156 40.735625 -0.12898437 42 -0.125 C43.84078125 -0.13080078 43.84078125 -0.13080078 45.71875 -0.13671875 C47.46671875 -0.13478516 47.46671875 -0.13478516 49.25 -0.1328125 C50.32765625 -0.13168457 51.4053125 -0.13055664 52.515625 -0.12939453 C55 0 55 0 56 1 C56.12375169 3.02414991 56.17797311 5.05257737 56.20532227 7.08032227 C56.2352401 9.03223228 56.2352401 9.03223228 56.26576233 11.02357483 C56.28274799 12.4545174 56.29962675 13.88546125 56.31640625 15.31640625 C56.33696906 16.7722992 56.35796534 18.22818609 56.37937927 19.68406677 C56.43466961 23.52272647 56.48404802 27.36144065 56.53222656 31.20019531 C56.58239091 35.11463288 56.63810336 39.02899096 56.69335938 42.94335938 C56.80102603 50.62883901 56.90245193 58.31438457 57 66 C57.73025391 65.06478516 58.46050781 64.12957031 59.21289062 63.16601562 C60.19394389 61.91270834 61.17506745 60.65945608 62.15625 59.40625 C62.63481445 58.79297852 63.11337891 58.17970703 63.60644531 57.54785156 C66.81648778 53.45153475 70.11667767 49.45453259 73.5 45.5 C77.2781881 41.08102559 80.93254421 36.59098414 84.5 32 C88.56587509 26.76840479 92.76072965 21.67328992 97.06616211 16.63745117 C100.62029199 12.47433617 104.05523454 8.22713451 107.44140625 3.92578125 C109 2 109 2 111 0 C113.50920846 -0.17495606 115.90624941 -0.23169569 118.4140625 -0.1953125 C119.14370209 -0.1924826 119.87334167 -0.18965271 120.62509155 -0.18673706 C122.95856028 -0.17553002 125.29164703 -0.1504251 127.625 -0.125 C129.20572363 -0.11497085 130.78645327 -0.10584489 132.3671875 -0.09765625 C136.24493914 -0.07558905 140.12240478 -0.04105615 144 0 C143.14774579 4.2386348 140.93866714 6.71297408 138.125 9.875 C134.11596151 14.48828413 130.24168412 19.16727266 126.5 24 C122.93360075 28.59153287 119.28157274 33.0840253 115.5 37.5 C110.79677319 42.99779783 106.30569215 48.63720402 101.859375 54.34375 C98.71139287 58.38166801 95.51432586 62.37972152 92.3125 66.375 C91.78277588 67.03612793 91.25305176 67.69725586 90.70727539 68.37841797 C89.47202378 69.91935176 88.23609127 71.45973968 87 73 C88.26936947 75.73362753 89.62408666 77.92280422 91.6171875 80.1796875 C92.13571289 80.77168945 92.65423828 81.36369141 93.18847656 81.97363281 C93.7450293 82.60108398 94.30158203 83.22853516 94.875 83.875 C96.05502485 85.2210585 97.23470451 86.56741969 98.4140625 87.9140625 C99.01250977 88.59500977 99.61095703 89.27595703 100.22753906 89.97753906 C102.92146391 93.05143347 105.58921729 96.14740742 108.25 99.25 C108.74878662 99.83128662 109.24757324 100.41257324 109.76147461 101.01147461 C112.70149392 104.44919267 115.58817071 107.92384621 118.4375 111.4375 C122.05430202 115.89603049 125.78923614 120.23688032 129.5625 124.5625 C133.35501698 128.92361931 137.13873115 133.28806443 140.8125 137.75 C141.43769531 138.50796875 142.06289063 139.2659375 142.70703125 140.046875 C144 142 144 142 144 145 C139.32306155 145.24920157 134.65006167 145.42952201 129.96801758 145.54931641 C128.3797673 145.59928673 126.79196969 145.66729737 125.20532227 145.75439453 C112.08673613 146.4559232 112.08673613 146.4559232 107.07641602 142.96020508 C104.77540267 140.42490674 102.87250453 137.86241368 101 135 C100.08062353 133.84353635 99.15134312 132.69478755 98.20703125 131.55859375 C97.41683594 130.52863281 96.62664062 129.49867188 95.8125 128.4375 C91.57358977 122.96131523 87.22711965 117.58548587 82.8125 112.25 C77.81667182 106.21136977 72.86290821 100.14659515 68 94 C63.23198497 95.95251294 60.57524952 99.59251049 57.265625 103.40625 C55.90296544 104.96626026 54.50569072 106.49826376 53.046875 107.96875 C52.49515625 108.5359375 51.9434375 109.103125 51.375 109.6875 C50.88773437 110.16574219 50.40046875 110.64398438 49.8984375 111.13671875 C48.43314142 114.1756154 49.15605327 116.87453005 50 120 C51.54920444 124.34163645 53.39100281 128.55702537 55.20507812 132.79296875 C55.56150391 133.64761719 55.91792969 134.50226563 56.28515625 135.3828125 C56.61394775 136.14996582 56.94273926 136.91711914 57.28149414 137.70751953 C58 140 58 140 58 145 C49.09 145 40.18 145 31 145 C26.50007315 134.87516459 26.50007315 134.87516459 24.89697266 130.29101562 C24.53624664 129.26544556 24.17552063 128.23987549 23.80386353 127.18322754 C23.23966202 125.56112366 23.23966202 125.56112366 22.6640625 123.90625 C22.26222748 122.76071655 21.86039246 121.61518311 21.44638062 120.43493652 C20.16907093 116.79117772 18.89691627 113.14564452 17.625 109.5 C16.77899431 107.08321132 15.9326431 104.66654356 15.0859375 102.25 C13.45962688 97.60734121 11.83506183 92.96407795 10.21191406 88.3203125 C7.49141414 80.54093011 4.75002317 72.76898777 2 65 C0.20917574 67.68623639 -0.70563973 69.70617893 -1.73657227 72.71728516 C-2.06774551 73.67744537 -2.39891876 74.63760559 -2.74012756 75.62686157 C-3.09529953 76.67038788 -3.4504715 77.71391418 -3.81640625 78.7890625 C-4.1917601 79.87972015 -4.56711395 80.97037781 -4.95384216 82.09408569 C-6.16079223 85.60301001 -7.36198377 89.1138698 -8.5625 92.625 C-10.12383457 97.18053744 -11.68784379 101.73514827 -13.25390625 106.2890625 C-13.64027252 107.41322571 -14.02663879 108.53738892 -14.42471313 109.69561768 C-18.49720078 121.50740473 -22.74287533 133.25356809 -27 145 C-36.24 145 -45.48 145 -55 145 C-54.30951122 140.16657855 -53.84897777 137.05837754 -52.16845703 132.75048828 C-51.78868713 131.76614807 -51.40891724 130.78180786 -51.01763916 129.76763916 C-50.60189636 128.71252136 -50.18615356 127.65740356 -49.7578125 126.5703125 C-49.3224115 125.44784119 -48.8870105 124.32536987 -48.43841553 123.16888428 C-47.25396208 120.11930443 -46.06302077 117.07235865 -44.86916351 114.02645111 C-43.61709294 110.82722011 -42.37361171 107.6246548 -41.12939453 104.42236328 C-39.08707395 99.16865562 -37.04026418 93.91671958 -34.99023438 88.66601562 C-30.99492271 78.43139409 -27.02973552 68.18511867 -23.06237793 57.93963623 C-21.50225617 53.91294386 -19.93928356 49.88736101 -18.37628174 45.86178589 C-15.30280393 37.94574425 -12.23672956 30.02697794 -9.1875 22.1015625 C-8.61478445 20.61473132 -8.04203199 19.12791436 -7.46923828 17.64111328 C-6.43871421 14.96609137 -5.41147427 12.28984233 -4.38623047 9.61279297 C-3.7271167 7.9018042 -3.7271167 7.9018042 -3.0546875 6.15625 C-2.67812012 5.17462891 -2.30155273 4.19300781 -1.91357422 3.18164062 C-1 1 -1 1 0 0 Z " fill="#020202" transform="translate(198,188)"/>
</svg>
